<?xml version="1.0" encoding="utf-8"?>
<!-- Generator: Adobe Illustrator 19.2.0, SVG Export Plug-In . SVG Version: 6.00 Build 0)  -->
<svg version="1.1" id="Layer_1" xmlns="http://www.w3.org/2000/svg" xmlns:xlink="http://www.w3.org/1999/xlink" x="0px" y="0px"
	 viewBox="0 0 760 74" enable-background="new 0 0 760 74" xml:space="preserve">
<g>
	<g>
		<path fill="#FEFEFE" d="M380,61c-118.5,0-237,0-355.5,0.1c-3.7,0-4.7-0.8-4.6-4.6c0.3-13,0.2-26,0-39c0-2.2,0.4-2.9,2.6-2.5
			c0.6,0.1,1.3,0,2,0c237,0,474,0,711-0.1c3.7,0,4.7,0.8,4.6,4.6c-0.3,12.8-0.2,25.7,0,38.5c0,2.5-0.6,3.1-3.1,3.1
			C709.7,61,682.3,61,655,61C563.3,61,471.7,61,380,61z"/>
		<path fill="#FAFAFA" d="M614.4,18c10.3,0.1,17,9.6,13.3,19.2c-2.8,7.2-8,12.9-12.5,19c-1.1,1.4-1.8,1.2-3-0.2
			c-4.6-5.3-8.5-11-11.4-17.4C595.9,28,602.6,17.9,614.4,18z"/>
		<path fill="#EA7D7F" d="M592.8,31.9c-0.1,2-1,4.2-2,6.3c-3,6-7.1,11.3-11.1,16.6c-1.4,1.9-2.4,2.2-4-0.1
			c-3.9-5.6-8.1-11-10.9-17.3c-2.7-5.9-1.8-11.2,2.6-15.5c4.4-4.4,9.7-5.7,15.6-3.7C588.5,20.2,592.7,26,592.8,31.9z"/>
		<path fill="#575757" d="M699.9,34c-2.5,9.1-8.7,15.7-14.4,23.3c-4.9-6-9-12-12.4-18.5c-2.9-5.5-3-10.9,1.1-15.8
			c3.6-4.4,8.3-6.6,14.1-5.3c6.1,1.4,10.4,4.9,11.6,11.4C699.3,30.7,699.3,32.3,699.9,34z"/>
		<path fill="#303030" d="M734.1,35.3c-3,6.3-6.5,12.3-10.8,17.8c-3.1,4-4,4-7.1-0.2c-3.3-4.5-6.3-9.2-9-14.2
			c-4.5-8.3,0.2-16.6,7.1-19.5c7.4-3.1,15.9,0.6,19,8.3c0.2,0.4,0.6,0.8,0.9,1.2C734.7,30.9,734.7,33.1,734.1,35.3z"/>
		<path fill="#708024" d="M285,52c-3.5-4-6.2-8.6-8.4-13.4c-3.5-7.7-0.8-14.7,7.1-18.7c3.4-1.1,6.8-0.6,10.3-0.7
			c4.9,1.7,8.4,4.8,9.8,9.9c-0.3,2-0.6,4,0.1,5.9c-1.6,6.6-5.6,11.9-9.9,17C291,54.6,288,54.7,285,52z"/>
		<path fill="#B7F171" d="M466.6,54.1c-4.3-4.7-7.5-10.1-10.2-15.8c-2.8-5.8-1.8-11.4,2.6-16.1c4.2-4.5,9.4-6.3,15.4-4.1
			c6,2.2,9.5,6.5,10.4,12.8c0.4,2.4-0.6,4.6-1.5,6.7c-2.7,6.1-6.3,11.6-10.9,16.6C470.5,56.6,468.6,56.7,466.6,54.1z"/>
		<path fill="#416573" d="M365.8,52c-4.3,6.1-5.4,6.2-9.1,0c-1.8-3-4.6-5.5-5.6-9c0.3-0.9-0.3-1.5-0.7-2.3
			c-4.9-9.9-2.4-16.5,7.8-21.1c2.5-1.2,5.2,0.1,7.7-0.4c4.4,1.9,7.8,4.6,9.1,9.5c1.1,3.1-0.2,6.2-0.2,9.3c-1.3,3.7-3.3,7-5.9,10
			C367.7,49.2,365.7,49.7,365.8,52z"/>
		<path fill="#FE8CE7" d="M538,53c-2.4-3.5-5.9-6.4-7.1-10.7c-1.4-2.4-2.1-5-3.3-7.5c-0.2-1.8-0.1-3.5-0.1-5.3
			c0.9-1.5,1.5-3.2,2.3-4.7c3.5-4.1,7.5-7.1,13.4-6.3c10.3,2.7,13.8,8.3,11.8,18.6l0,0c-0.9,1.3-1.2,2.9-2,4.2
			c-2.6,4.2-4.4,8.9-8.7,11.8C542.2,55.5,540.1,54.9,538,53z"/>
		<path fill="#993134" d="M232.3,32.5c-0.1,4.7-2.6,8.5-5,12.3c-2.5,3.9-5,7.8-8.4,11c-1.4,1.3-2.4,1.7-3.5,0
			c-3.9-6-8.4-11.6-11.1-18.2c-2.2-5.4-1-10.9,3.3-15c4.5-4.2,9.8-5.4,15.6-3.1C228.6,21.6,232.3,27,232.3,32.5z"/>
		<path fill="#016099" d="M259.5,19.9c9.1,5.3,11.1,11.8,6.4,20.6c-3,5.5-6.5,10.6-10.9,15.2c-1.5,1.6-2.7,1.8-3.9-0.1
			c-3.4-5.3-7.3-10.2-10.1-15.9c-4.3-8.9-1.3-16.4,8-20.4C252.5,19.1,256.1,18.9,259.5,19.9z"/>
		<path fill="#E68F2F" d="M87.7,36c-2.5,7.3-7.1,13.2-11.9,19c-1.6,1.6-3.2,1.6-4.8,0c-4-4.7-7.3-9.8-10.1-15.3
			c-4.3-8.8-1.3-16.5,8-20.4c2.7,0.5,5.6-1,8.1,0.7c6.2-0.1,8.2,4.8,10.6,9.1C87.3,31.3,87.4,33.7,87.7,36z"/>
		<path fill="#563665" d="M330,19.2c5.1,1.5,8.3,4.8,9.8,9.9c-0.3,2-0.6,4,0.1,5.9c-2.5,9.1-8.8,15.7-14.3,23.2
			c-4.9-6-9.1-12-12.4-18.5c-4.5-9-1.5-16.5,7.9-20.5C324,19.1,327,19.1,330,19.2z"/>
		<path fill="#6DA726" d="M114,19.2c5.1,1.4,8.2,4.9,9.8,9.9c-0.4,2.3-0.4,4.6,0,6.9c-1.2,4.1-3.4,7.7-6,11.1c-1,1-2.3,1.7-2.5,3.2
			l0.1-0.1c-0.7,0.2-1,0.9-1.4,1.3c-4.2,4.5-4.6,4.5-8.8,0c-0.4-0.5-0.7-1.1-1.4-1.3c-2.2-3.4-4.4-6.8-6.5-10.3
			c-5.2-8.5,0-18,7.9-20.6C108,19.1,111,19.1,114,19.2z"/>
		<path fill="#36A1D1" d="M159.7,35.9c-1.7,6.4-6.4,10.8-9.9,16.1c-2.9,3.8-5.8,3.8-8.7,0c-3.5-4.1-6.6-8.3-8.3-13.5
			c-1.7-4-1.7-8,0-12c2.7-5.6,7.4-8.6,13.4-8.2c6.7,0.4,10.9,4.7,13.4,10.7C159.3,31.3,159.4,33.6,159.7,35.9z"/>
		<path fill="#FE8879" d="M383,32.9c0-6.9,3.5-12.1,9.2-14.6c5.3-2.2,11.8-0.8,16.1,3.4c4.2,4.2,5.4,10,3.1,15.5
			c-2.9,7-7.7,12.8-12.1,18.8c-0.8,1.1-1.7,2.2-3,0.5c-4.9-6.7-10.1-13.2-12.8-21.2C383,34.4,383,33.2,383,32.9z"/>
		<path fill="#84D8FE" d="M516.9,42c-1.7,3.8-4.2,7-6.9,10.1c-2.5,1.9-5.2,2.5-8.1,1.1c-2.8-3-5-6.5-6.8-10.2
			c-0.7-3.6-3.5-6.6-3.1-10.7c0.2-2,0.2-3.9,1.3-5.6c3.2-5.4,7.8-8.7,14.3-7.7c6.2,1,9.7,5,11.8,10.7c0.9,2.5-0.1,4.4-0.7,6.7
			C518.2,38.3,516.7,39.9,516.9,42z"/>
		<path fill="#FEC78B" d="M426.1,48c-0.6-1-1.3-2-1.9-3.1c-1-4.2-3.8-7.7-5-11.9c0-0.7,0-1.4,0-2.1c1.2-1.8,1.3-4.2,2.9-5.8
			c6.4-6.7,11.3-8.1,17.9-4.9c5.7,2.8,8.5,8.2,7.6,14.7c-0.5,2.5-2.7,4.3-2.6,7c-1.2,3.8-4.4,6.1-6.8,9.1c-4.5,5.2-5.1,5.2-9.3-0.4
			C428.1,49.6,427.1,48.7,426.1,48z"/>
		<path fill="#A1A1A1" d="M653.2,17.9c9.5,2.2,13.9,10.9,10.1,19.7c-2.8,6.4-7.5,11.6-11.5,17.1c-1.4,1.9-2.8,1.7-4.2-0.3
			c-4.3-5.9-8.7-11.6-11.3-18.4c0.1-2.6,0.2-5.3-0.1-7.9c1.4-5.7,4.9-9.2,10.7-10.1C648.9,17.3,651.1,17.3,653.2,17.9z"/>
		<path fill="#C93C2A" d="M37.5,58.2C32.2,51.6,27.4,45,24.2,37.4c-2.5-6-0.4-12.3,5-16.3c5.4-3.9,12.2-3.8,17.6,0.4
			c5.1,4,6.9,10.1,4.4,16C47.9,45.2,42.7,51.5,37.5,58.2z"/>
		<path fill="#C84FB0" d="M194.4,39.2c-2.3,3.6-4.6,7.3-6.9,10.9c-0.3,0.1-0.7,0.2-0.9,0.4c-3.3,4-6.8,3.8-10.4,0.4
			c-2.7-4.9-7.2-8.8-8.2-14.7c-0.8-1.8-0.3-3.8-0.4-5.7c1-1.9,1.3-4.1,2.4-5.9c1.7-1.9,3.1-4.3,5.9-4.8c3-0.9,6.1-0.1,9.1-0.7
			c5.2,1.3,7.7,5.6,10.3,9.6c-0.6,1.4,0.6,2.9,0.1,4.3C195.2,35.1,193.9,37,194.4,39.2z"/>
		<path fill="#80D5FC" d="M516.9,42c-1.5-1.3-0.1-2.4,0.4-3.5c2.6-6.8,0.8-12.9-5.2-16.8c-5-3.2-11.2-2.1-16.2,3
			c-0.7,0.7-1.2,1.5-1.8,2.3c-1,0.1-1.6,0-1.1-1.2c3.3-6.4,9.1-9.5,15.2-8.2c7.3,1.6,12.6,7.1,12.7,13.9
			C520.8,35.3,518.9,38.7,516.9,42z"/>
		<path fill="#FCC080" d="M447,36c1.3-10.7-6.6-17-15.7-16.1c-4.3,0.4-6.1,4.2-9.3,6.1c-0.5-0.2-0.8-0.5-1-1c3.3-5.4,8-8.6,14.5-7.5
			c6.8,1.1,11.2,5.3,12.9,12.2c0.7,2.8,0.1,5.2-1.3,7.5C446.6,36.9,446.5,36.5,447,36z"/>
		<path fill="#42606C" d="M358,20c-10.2,6-10.4,10.9-7.7,18.6c0.5,1.4,2.5,2.6,0.8,4.4c-7.2-9.7-4.8-19.3,5.9-23.8
			C357.5,19.3,357.8,19.6,358,20z"/>
		<path fill="#ED8EDB" d="M555.1,37.1c1.3-9.6-3.1-15.3-12.1-18c0.4-0.8,1.5-0.3,2-1C554.4,20.1,559.1,28.9,555.1,37.1z"/>
		<path fill="#FDC284" d="M426.1,48c1.4,0,2.7,0.7,3.2,1.9c2.4,5.4,5.5,4.2,8.9,1.1c-3.6,7.9-4.3,8.1-9.1,1.5
			C428,51.1,427,49.5,426.1,48z"/>
		<path fill="#80D6FC" d="M492.9,25.8c0.4,0.4,0.8,0.8,1.1,1.2c-1.6,4.1-1.6,8,0.5,12c0.6,1.1,2.3,2.4,0.6,3.9
			C491.2,37.6,489,32.1,492.9,25.8z"/>
		<path fill="#C04FAA" d="M176.2,51c0.6-0.1,1.6-0.5,1.8-0.3c2.5,2.9,4.8,2.6,7.3-0.1c0.4-0.5,1.5-0.3,2.3-0.5
			c-0.5,0.6-1,1.3-1.5,1.9C181,58.1,180.8,58.1,176.2,51z"/>
		<path fill="#6C7929" d="M285,52c3,1.1,6,1.1,9,0c-1.1,2.2-2.7,4.2-4.5,5.9C287.6,56.2,286.1,54.2,285,52z"/>
		<path fill="#6DA528" d="M103.7,50.1c0.6,0.3,1.3,0.4,1.7,0.9c2.8,3.6,5.4,3.7,8.2,0c0.3-0.5,1.1-0.6,1.7-0.8
			C110,59,109,59,103.7,50.1z"/>
		<path fill="#80D6FD" d="M501.9,53.2c2.7-0.4,5.4-0.7,8.1-1.1c-0.4,0.5-0.7,1.1-1.1,1.6C505.3,58.8,505.3,58.8,501.9,53.2z"/>
		<path fill="#EA8AD8" d="M545,18c-0.4,0.8-1.2,1-2,1c-5.4-0.3-9.3,2.7-13,6c-0.3-0.2-0.4-0.5-0.3-0.7c0.1-0.3,0.2-0.4,0.2-0.4
			c2.1-3.4,5.1-5.3,9-5.9c1.7-0.7,3.5-0.7,5.2,0C544.4,17.9,544.7,17.9,545,18z"/>
		<path fill="#FEC180" d="M419.1,33c2.4,3.7,5,7.2,5,11.9C421.8,41.2,418.9,37.8,419.1,33z"/>
		<path fill="#3C9BC6" d="M141.2,52c2.9,2.4,5.8,2.4,8.7,0c-1,2.1-1.8,4.8-4.3,4.8C142.9,56.9,142.2,54,141.2,52z"/>
		<path fill="#055A8C" d="M259.5,19.9c-3.5-0.2-7.1,0.9-10.4-0.7C252.6,17.7,256.1,17.9,259.5,19.9z"/>
		<path fill="#667420" d="M294,19.2c-3.3,1.6-6.8,0.5-10.3,0.7C287,18,290.4,17.7,294,19.2z"/>
		<path fill="#F98BE3" d="M538,53c2.1,0.6,4.2,1.3,6.3,0.1c0,2.1-1.2,3.6-3.1,3.6C539.1,56.8,538.8,54.6,538,53z"/>
		<path fill="#659C22" d="M114,19.2c-3,1.3-5.9,1.2-8.9,0C108,18,111,17.9,114,19.2z"/>
		<path fill="#395965" d="M358,20c-0.3-0.3-0.7-0.6-1-0.9c3-1.1,6-1.3,8.9,0C363.5,20.9,360.6,19.6,358,20z"/>
		<path fill="#50335F" d="M330,19.2c-3,1.3-5.9,1.2-8.9,0C324,18,327,17.9,330,19.2z"/>
		<path fill="#3C99C3" d="M132.9,26.5c-0.8,4-0.8,8,0,12C130.3,34.5,130.1,30.5,132.9,26.5z"/>
		<path fill="#AC539A" d="M184.9,19.1c-2.9,1.5-6,0.9-9.1,0.7C178.7,17.3,181.9,18.7,184.9,19.1z"/>
		<path fill="#9A9A9A" d="M636.1,28c1.5,2.6,1.4,5.3,0.1,7.9C635.2,33.3,634.8,30.7,636.1,28z"/>
		<path fill="#3E5C68" d="M374.9,38c-1.5-3.2,1-6.2,0.2-9.3C377.3,31.8,376.4,34.9,374.9,38z"/>
		<path fill="#B6EA77" d="M466.6,54.1c1.9,1.3,3.8,1.2,5.8,0C469.5,58.7,469.5,58.7,466.6,54.1z"/>
		<path fill="#FDBF7D" d="M421,25c0.3,0.3,0.6,0.7,1,1c-1.5,1.3,0.1,4.4-2.9,5C418.7,28.6,419.9,26.8,421,25z"/>
		<path fill="#C350AD" d="M194.4,39.2c-2.2-2.3-0.1-4.2,0.6-6.2c0.9,0.8,0.2,2.1,0.8,3C195.3,37,194.8,38.1,194.4,39.2z"/>
		<path fill="#AB4597" d="M195.8,36c-1-0.8-0.7-1.9-0.8-3c0.3-1.4-1.9-3,0.3-4.2C196.9,31,196.3,33.5,195.8,36z"/>
		<path fill="#EF91DD" d="M528,35c1.3,2.3,2.6,4.6,2.9,7.3c-1.8-1.6-2.9-3.7-3-6.1c-0.2-0.3-0.3-0.5-0.2-0.8
			C527.8,35.1,527.9,35,528,35z"/>
		<path fill="#FEC180" d="M447,36c0,0.4,0.1,0.8,0.1,1.2c-0.2,1.8-1.2,3.2-2.2,4.7C443.6,39.3,445.8,37.8,447,36z"/>
		<path fill="#E797D7" d="M528,35c0,0.4,0,0.8-0.1,1.2c-1.5-2.8-1.5-5.5,0-8.3c0.3,0.2,0.4,0.5,0.3,0.7c-0.1,0.3-0.2,0.4-0.3,0.4
			C528,31,528,33,528,35z"/>
		<path fill="#CA7D2A" d="M77.2,19.9c-2.7-0.3-5.5,0.8-8.1-0.7c0.6-0.1,1.2-0.2,1.9-0.3c1.8-0.6,3.5-0.5,5.3,0
			C76.5,19.2,76.8,19.6,77.2,19.9z"/>
		<path fill="#3F5E6A" d="M365.8,52c-1.1-3,1-3.5,3.1-4C368.6,49.8,366.8,50.6,365.8,52z"/>
		<path fill="#CF893D" d="M71.1,55c1.6,0.5,3.2,0.5,4.8,0C74.3,57.9,72.7,58.1,71.1,55z"/>
		<path fill="#AD639E" d="M168,30c0,2.1-0.1,4.2-0.1,6.3c-1.5-2.5-1.4-5-0.1-7.5C168.4,29,168.5,29.5,168,30z"/>
		<path fill="#3394C0" d="M159.7,35.9c-1.1-2.3-1.1-4.6,0-6.9C160.4,31.4,160.5,33.6,159.7,35.9z"/>
		<path fill="#659A24" d="M123.7,35.9c-1.1-2.3-1.1-4.6,0-6.9C124.5,31.4,124.5,33.7,123.7,35.9z"/>
		<path fill="#CC7E2B" d="M87.7,36c-1.1-2.3-1.2-4.6,0-6.9C88.4,31.3,88.5,33.7,87.7,36z"/>
		<path fill="#303030" d="M734.1,35.3c0-2.2,0-4.4,0-6.6C735.2,30.9,735.4,33.1,734.1,35.3z"/>
		<path fill="#4F325E" d="M339.9,35c-1.4-1.9-1.2-3.9-0.1-5.9C340.3,31,340.6,33,339.9,35z"/>
		<path fill="#647220" d="M303.9,35c-1.4-1.9-1.3-3.9-0.1-5.9C304.3,31,304.6,33,303.9,35z"/>
		<path fill="#A65897" d="M168,30c-0.1-0.4-0.1-0.9-0.2-1.3c0.1-1.7,0.8-3,2.1-4.1C169.8,26.6,169.4,28.5,168,30z"/>
		<path fill="#EA91D8" d="M528,29c0-0.4,0-0.8-0.1-1.1c0.2-1.6,0.8-2.9,2-4c0,0.4,0,0.8,0.1,1.1C529.8,26.6,529.3,28,528,29z"/>
		<path fill="#A2A2A2" d="M653.2,17.9c-2.1,0-4.2,0-6.4,0C648.9,16.7,651.1,16.8,653.2,17.9z"/>
		<path fill="#515151" d="M699.9,34c-1.3-1.6-1.3-3.3,0-4.9C700.4,30.7,700.5,32.3,699.9,34z"/>
		<path fill="#ED8CDA" d="M553.1,41.2c0-1.7,0.5-3.2,2-4.2C555.2,38.8,554.5,40.2,553.1,41.2z"/>
		<path fill="#6DA528" d="M115.2,50.2c-0.3-2,0.6-3,2.5-3.2C117.2,48.3,116.4,49.5,115.2,50.2z"/>
		<path fill="#ED8EDB" d="M544.2,17.9c-1.7,0-3.5,0-5.2,0C540.6,16.7,542.4,16.7,544.2,17.9z"/>
		<path fill="#E68F2F" d="M76.2,18.8c-1.8,0-3.5,0-5.3,0C72.6,17.8,74.4,17.8,76.2,18.8z"/>
		<path fill="#B9F670" d="M459.8,34.3c-0.5-5.6,1.8-8.6,5.7-10.5c4.1-1.9,8.3-1.4,11.4,1.8c2.8,2.9,4.4,6.7,2.3,10.9
			c-1.8,3.5-3.6,7.1-5.8,10.3c-1.9,2.8-5.2,3.3-7.1,0.5C463.2,43.2,459.6,39.1,459.8,34.3z"/>
		<path fill="#436877" d="M370,32.8c0.2,5.3-2.5,9.1-5.3,12.7c-1.7,2.2-4.5,2.3-6.4-0.1c-2.5-3.1-4.3-6.7-5.2-10.6
			c-0.9-3.8,0.5-6.7,3.6-9.1c3-2.4,6.2-2.1,9.3-0.6C369.3,26.7,370.2,29.7,370,32.8z"/>
		<path fill="#FE90E9" d="M550,33c0.2,5-2.5,8.8-5.2,12.5c-1.9,2.6-4.5,2.7-6.5-0.2c-2.4-3.2-4.2-6.7-5.1-10.6
			c-0.7-3.5,0.1-6.6,3.1-8.8c3.1-2.3,6.4-2.5,9.8-0.8C549.3,26.8,550.1,29.7,550,33z"/>
		<path fill="#9E3235" d="M218.2,23c7,0.1,11.8,7.2,8.9,13.5c-1.6,3.6-3.6,7.1-5.8,10.4c-1.9,2.8-5.1,3.3-7.1,0.6
			c-2.8-3.9-6-7.8-6.4-13.2C207.3,27.4,211.3,22.9,218.2,23z"/>
		<path fill="#00649F" d="M264.1,33.5c-1.2,5.5-3.7,10.4-7.5,14.7c-1.3,1.4-3.2,1-4.7,0.6c-6.5-2.1-10.7-16.2-6.5-21.7
			c2.8-3.7,8.7-5.7,12.7-3.7C262.1,25.3,264.5,28.6,264.1,33.5z"/>
		<path fill="#F3952F" d="M63.5,35.2c-0.7-7.2,3.1-9.6,7-11.9c3.6-2.2,6.8-1.1,9.5,1.4c3.6,3.2,5.6,7.6,3.3,12
			c-1.7,3.3-2.7,7.1-5.4,10c-3,3.3-5.9,3.6-8.7,0.1C66.3,42.8,63.2,38.8,63.5,35.2z"/>
		<path fill="#593869" d="M336,34.7c-0.8,4.7-3.8,9.7-7.9,14.1c-0.9,0.9-2.2,1.4-3.7,0.8c-2.9-1.2-10.6-13.8-10.4-17
			c0.4-4.7,7.5-10.8,12.2-10.6C331.6,22.3,336.1,27.5,336,34.7z"/>
		<path fill="#6FAC25" d="M99.7,32.5c-0.1-4.8,4.7-10.4,9.9-10.5c4.7-0.1,11.4,6.2,11.2,11c-0.2,3.9-3.5,6.6-4.8,10.2
			c-0.4,1.3-1.6,2.4-2.3,3.7c-1.2,2.5-7,3.2-8,0.8C103.7,43,99.4,39.2,99.7,32.5z"/>
		<path fill="#37A6D8" d="M156,34.8c-1.3,4.4-3.7,9.7-8,14c-0.9,0.9-2.2,1.4-3.7,0.7c-5.8-2.5-10.8-15.7-8-21.2
			c2.2-4.4,7.2-7,11.4-6C153,23.7,156.1,27.8,156,34.8z"/>
		<path fill="#FE897A" d="M409.1,31.5c-0.1,8.3-4.2,13.4-8.5,18.2c-2.1,2.4-4.9,1.7-7-0.6c-3.6-4.2-6.2-9.1-7.5-14.5
			c-1.2-5.1,1.7-8.6,5.4-11.5c3.9-3,8.1-2.5,12.2-0.2C407.4,25,409.4,28.3,409.1,31.5z"/>
		<path fill="#89D9FE" d="M515.1,32.7c-0.2,3.8-1.2,6.3-2.7,8.7c-1.7,2.8-3.1,6.9-6.6,6.7c-3.8-0.2-5.6-4.2-7.3-7.4
			c-4-7.6-3.2-12.9,2.1-16.1c3.6-2.2,7.1-2.2,10.3,0C513.6,26.6,515.6,29.7,515.1,32.7z"/>
		<path fill="#FECA91" d="M434.2,23c7,0.1,11.8,7.2,9,13.5c-1.6,3.6-3.6,7.1-5.8,10.4c-1.9,2.8-5.1,3.3-7.1,0.6
			c-2.8-3.9-6-7.8-6.4-13.2C423.3,27.4,427.3,22.9,434.2,23z"/>
		<path fill="#A2A2A2" d="M662,32.9c-1.7,6-5.1,12.4-10.8,17.2c-1.7,1.5-3.1,0-4.2-1.3c-3.5-4.7-6.5-9.6-8.2-15.3
			c-1.7-5.5,3.4-12.4,9.1-12.6C657.3,20.6,662.1,24.2,662,32.9z"/>
		<path fill="#CE3C28" d="M25.9,32.7c-0.2-5.4,2.5-8.7,7.2-10.8c4.4-1.9,8.6-1.3,12,1.8c3.7,3.4,6.1,7.4,3.9,12.8
			c-1.9,4.5-4,8.7-7.4,12.3C39,51.7,36.2,52,33.6,49C29.5,44.3,26.1,39.3,25.9,32.7z"/>
		<path fill="#CD50B5" d="M174,41c-2.3-4.3-3.6-8.8-1.1-13.2c2.7-4.8,7.7-5.9,14.1-3.8c0.8,1,1.9,1.8,0.9,3.2
			c-1.5,0.8-2.9-0.2-4.3-0.5c-5.6-1.2-8.6,1.3-8.3,7.1c0.2,3.3,1.5,6,3.5,8.5c1.9,2.4,3.8,2.2,5.7-0.1c2-2.5,3.1-5.4,4-8.4
			c0.4-1.4-0.1-3.5,2.3-3.8c2.6,3.6,0.6,6.8-0.8,10.1l0,0c-1.7,3-3.2,6.1-6.1,8.4c-1.7,1.3-3.1,1.6-4.3,0
			C177.7,46,174.9,44.2,174,41z"/>
		<path fill="#CC4FB3" d="M174,41c1.1,1.2,2.1,2.5,3.2,3.7c4.9,5.1,6.4,4.9,10.1-1.3c0.7-1.3,1.1-2.8,2.7-3.4
			c-0.3,4.8-3.9,7.4-7,10.3c-1,0.9-2.4,1-3.1-0.1C178,47.1,174,45.3,174,41z"/>
		<path fill="#CC4FB3" d="M188,27c-0.3-1-0.7-2-1-3c7,3.1,8.2,10,3,16c-0.1-3.3,2.5-6.7,0-10C188.6,29.5,188,28.4,188,27z"/>
		<path fill="#BAF870" d="M477,35.3c-0.1,2.2-2.1,5.7-4.8,9c-1.7,2.1-3.6,2.2-5.3,0c-2.3-3.1-4.3-6.3-4.8-10.2
			c-0.7-4.9,2.6-8.7,7.5-9C473.5,24.8,477,28.7,477,35.3z"/>
		<path fill="#A13336" d="M225,32.9c0.1,4.4-4.6,11.9-7.4,12c-2.7,0.1-7.6-7.7-7.5-12c0.1-3.8,4.1-7.6,7.9-7.6
			C221.7,25.3,224.9,28.9,225,32.9z"/>
		<path fill="#0066A2" d="M261.1,32c-0.2,5.3-2.4,9-5,12.4c-1.7,2.3-3.5,1.3-4.9-0.4c-2.5-3-4.1-6.5-4.9-10.2
			c-0.7-2.8,0.4-5.5,2.7-7c2.5-1.6,5.6-2.1,8.4-0.5C259.8,27.7,261.6,29.6,261.1,32z"/>
		<path fill="#5A396A" d="M325.7,26.6c4,0.1,6.4,2.7,6.3,6.8c-0.1,3.8-3.8,10.2-5.9,10.3c-2.5,0.1-7.1-7.1-7.1-11.1
			C319.1,29.4,322.4,26.4,325.7,26.6z"/>
		<path fill="#71AF26" d="M102,33.4c-0.1-3.4,0.3-6.3,3.7-7.7c3.5-1.4,6.9-1.2,9.8,1.4c2.6,2.3,3,5.2,1.8,8.6
			c-1.1,3.2-2.8,6-4.6,8.8c-1.8,3-4.3,2.8-6,0.4C104.3,41.4,101.6,37.8,102,33.4z"/>
		<path fill="#38A9DC" d="M153,34.4c-0.1,2.7-2.1,6.3-4.7,9.6c-1.3,1.6-2.8,1.9-4.6,0.2c-3.2-3.2-5-7.1-5.5-11.4
			c-0.5-4.3,3.4-7.6,8-7.5C150,25.4,153.1,28.7,153,34.4z"/>
		<path fill="#FE8D7E" d="M407,33.4c-0.5,5.7-3.3,10.2-7.2,14.3c-1.9,1.9-3.5,1.4-5.1-0.4c-3-3.4-5.3-7.3-6.4-11.7
			c-1-3.8-0.7-7.4,2.6-9.9c3.4-2.6,7.2-3.6,11.1-1.4C405.7,26.2,407.4,29.2,407,33.4z"/>
		<path fill="#D23D29" d="M47,35.1c-0.3,3.9-3.3,8.6-7.3,12.7c-1.9,2-3.6,1.1-5-0.6c-3.2-3.7-5.6-7.8-6.6-12.6
			C27,28.7,30.8,23.7,36.7,23C42.4,22.4,47,26.9,47,35.1z"/>
		<path fill="#D152B8" d="M188,27c0.7,1,1.3,2,2,3c0.2,5.4-1.9,9.8-5.3,14c-2,2.4-3.6,2.6-5.7,0.5c-3.8-3.8-5.8-8.4-5-13.9
			c0.7-4.7,6-7.1,10.8-5C185.9,26.1,187,26.5,188,27z"/>
		<path fill="#D53E2A" d="M45,33.6c-0.7,3.6-2.5,7.4-5.7,10.5c-1,0.9-2,1-3.2,0.4c-3.3-1.8-6.5-11.8-4.9-15c1.7-3.3,4.5-4.2,7.9-3.5
			C42.9,26.7,44.9,28.9,45,33.6z"/>
	</g>
</g>
</svg>
